<?xml version="1.0" encoding="UTF-8" standalone="no"?>
<svg
   xmlns:dc="http://purl.org/dc/elements/1.1/"
   xmlns:cc="http://creativecommons.org/ns#"
   xmlns:rdf="http://www.w3.org/1999/02/22-rdf-syntax-ns#"
   xmlns:svg="http://www.w3.org/2000/svg"
   xmlns="http://www.w3.org/2000/svg"
   xmlns:sodipodi="http://sodipodi.sourceforge.net/DTD/sodipodi-0.dtd"
   xmlns:inkscape="http://www.inkscape.org/namespaces/inkscape"
   width="100"
   height="300"
   viewBox="0 0 100 300"
   version="1.1"
   xml:space="preserve"
   style="clip-rule:evenodd;fill-rule:evenodd;stroke-linejoin:round;stroke-miterlimit:1.41420996"
   id="svg6"
   sodipodi:docname="ipat_widget_green_100x300.svg"
   inkscape:version="0.92.4 (5da689c313, 2019-01-14)"><metadata
   id="metadata12"><rdf:RDF><cc:Work
       rdf:about=""><dc:format>image/svg+xml</dc:format><dc:type
         rdf:resource="http://purl.org/dc/dcmitype/StillImage" /><dc:title></dc:title></cc:Work></rdf:RDF></metadata><defs
   id="defs10" /><sodipodi:namedview
   pagecolor="#ffffff"
   bordercolor="#666666"
   borderopacity="1"
   objecttolerance="10"
   gridtolerance="10"
   guidetolerance="10"
   inkscape:pageopacity="0"
   inkscape:pageshadow="2"
   inkscape:window-width="1632"
   inkscape:window-height="1021"
   id="namedview8"
   showgrid="false"
   inkscape:pagecheckerboard="true"
   inkscape:showpageshadow="false"
   inkscape:zoom="1.28"
   inkscape:cx="-78.565521"
   inkscape:cy="118.33013"
   inkscape:window-x="48"
   inkscape:window-y="0"
   inkscape:window-maximized="1"
   inkscape:current-layer="layer3"
   units="px"
   borderlayer="true"><inkscape:grid
     type="xygrid"
     id="grid885" /></sodipodi:namedview>
    
<g
   inkscape:groupmode="layer"
   id="layer3"
   inkscape:label="green"
   transform="translate(0,15050)"
   style="display:inline"><g
     inkscape:groupmode="layer"
     id="layer8"
     inkscape:label="100x300"
     style="display:inline"><rect
       style="clip-rule:evenodd;display:inline;opacity:1;vector-effect:none;fill:#81aa1e;fill-opacity:0.99549549;fill-rule:evenodd;stroke:none;stroke-width:0.46289602;stroke-linecap:butt;stroke-linejoin:miter;stroke-miterlimit:4;stroke-dasharray:none;stroke-dashoffset:0;stroke-opacity:1;paint-order:stroke fill markers"
       id="rect1281"
       width="100.00008"
       height="300.00024"
       x="0"
       y="-15050" /><g
       transform="matrix(0.137672,0,0,0.13853347,11.065802,-15036.291)"
       id="g1286"
       style="clip-rule:evenodd;display:inline;fill-rule:evenodd;stroke-linejoin:round;stroke-miterlimit:1.41420996">
        <path
   d="m 334.905,535.721 h -38.782 l 70.964,-109.104 c -3.089,-0.642 -5.817,-1.461 -8.189,-2.456 -2.346,-1.177 -4.306,-2.483 -5.868,-3.914 -1.566,-1.437 -2.869,-2.871 -3.913,-4.305 -0.372,-0.539 -0.712,-1.085 -1.02,-1.649 l -29.494,45.174 c -0.915,1.367 -2.283,2.772 -3.754,3.773 -1.332,0.903 -4.022,0.799 -5.456,0.373 -1.633,-0.483 -3.582,-1.634 -4.465,-3.401 -0.901,-1.803 -1.379,-3.835 -1.387,-5.84 v -36.389 c -2.602,-0.14 -4.936,-0.457 -7.003,-0.954 -2.886,-0.575 -5.423,-1.326 -7.614,-2.245 -2.075,-1.041 -3.807,-2.196 -5.19,-3.462 -1.07,-0.983 -2,-1.96 -2.795,-2.94 v 67.631 l -38.737,59.708 h -24.97 c -113.422,0 -198.953,-79.126 -198.953,-184.053 0,-29.693 6.848,-58.03 20.353,-84.225 2.825,-5.478 6.356,-18.815 -0.502,-30.081 C 28.17,221 22.905,202.121 22.905,182.767 c 0,-57.946 47.288,-105.224 105.415,-105.39 18.564,-0.053 25.477,-4.831 33.218,-11.575 l 0.672,-0.585 c 34.821,-30.206 79.473,-46.84 125.731,-46.84 98.774,0 180.956,74.166 191.161,172.515 l 0.157,1.543 c 1.193,11.727 2.426,23.853 16.499,40.59 27.944,33.236 43.334,75.37 43.334,118.643 0,103.207 -89.69,184.053 -204.187,184.053 z M 509.748,221.262 C 499.301,208.835 498.522,201.18 497.445,190.586 l -0.162,-1.58 C 491.932,137.428 467.807,89.759 429.352,54.777 390.59,19.516 340.368,0.097 287.941,0.097 c -50.658,0 -99.564,18.223 -137.709,51.312 l -0.702,0.611 c -5.039,4.39 -8.08,7.04 -21.262,7.077 -33.042,0.095 -64.087,12.982 -87.417,36.287 -23.36,23.334 -36.225,54.368 -36.225,87.383 0,22.707 6.186,44.873 17.89,64.1 2.514,4.13 0.759,10.476 -0.13,12.199 C 7.741,287.471 0,319.492 0,351.668 c 0,54.906 21.679,105.771 61.044,143.228 40.056,38.114 95.525,59.105 156.188,59.105 h 117.673 c 60.349,0 116.497,-20.947 158.099,-58.981 41.507,-37.946 64.366,-88.857 64.366,-143.352 0,-47.57 -16.912,-93.881 -47.622,-130.406 z m -230.063,41.272 c -6.322,0 -10.646,-1.161 -12.966,-3.482 -2.324,-2.452 -3.484,-6.129 -3.484,-11.032 0,-2.453 0.452,-4.451 1.355,-5.997 1.03,-1.679 2.129,-3.035 3.289,-4.064 1.42,-1.164 2.903,-2.068 4.45,-2.713 2.064,-0.774 4.259,-1.546 6.581,-2.32 l 6.194,-2.128 c 2.321,-0.904 4.451,-1.679 6.386,-2.326 0.902,-0.257 1.872,-0.709 2.902,-1.353 1.034,-0.645 1.677,-1.614 1.936,-2.906 v 23.807 c 0,4.646 -1.16,8.257 -3.484,10.835 -2.32,2.456 -6.709,3.679 -13.159,3.679 z m 26.709,6.387 c 2.45,-2.323 4.063,-4.838 4.835,-7.548 0.904,-2.84 1.356,-5.418 1.356,-7.741 v -57.286 c 0,-6.709 -2.644,-12.257 -7.935,-16.642 -5.291,-4.516 -13.613,-6.777 -24.965,-6.777 -5.805,0 -10.775,0.65 -14.903,1.938 -4.129,1.162 -7.548,2.838 -10.257,5.034 -2.71,2.065 -4.71,4.513 -6,7.353 l -0.622,1.712 c -0.41,1.014 -0.637,2.123 -0.637,3.285 0,4.84 3.925,8.766 8.766,8.766 3.83,0 7.085,-2.455 8.278,-5.877 0.538,-1.315 1.276,-2.526 2.214,-3.627 2.324,-2.713 6.709,-4.064 13.161,-4.064 3.225,0 5.871,0.385 7.935,1.159 2.192,0.644 3.934,1.548 5.224,2.707 1.29,1.164 2.194,2.453 2.712,3.872 0.513,1.291 0.772,2.582 0.772,3.871 v 3.679 c 0,1.547 -0.324,2.9 -0.967,4.064 -0.517,1.159 -1.161,2.193 -1.935,3.098 -0.774,0.901 -1.612,1.61 -2.516,2.128 l -1.937,0.963 c -0.514,0.131 -1.805,0.583 -3.869,1.357 l -7.355,2.713 -8.513,2.9 -7.937,2.71 c -4.643,1.675 -8.259,4.513 -10.837,8.514 -2.451,4.002 -3.677,8.45 -3.677,13.356 v 9.094 c 0,2.323 0.388,4.901 1.161,7.741 0.904,2.71 2.581,5.225 5.033,7.548 2.45,2.323 5.805,4.256 10.063,5.805 4.255,1.549 9.804,2.322 16.643,2.322 6.836,0 12.387,-0.773 16.643,-2.322 4.258,-1.549 7.613,-3.482 10.066,-5.805 z m 154.709,74.84 c -6.151,0 -11.093,-5.216 -11.093,-11.676 0,-6.462 4.942,-11.602 11.093,-11.602 6.15,0 11.131,5.14 11.131,11.602 0,6.46 -4.981,11.676 -11.131,11.676 z m 0,-26.157 c -7.902,0 -14.401,6.423 -14.401,14.481 0,8.093 6.499,14.478 14.401,14.478 7.901,0 14.402,-6.385 14.402,-14.478 0,-8.058 -6.501,-14.481 -14.402,-14.481 z M 267.85,295.739 h -1.41 c -7.744,0 -13.805,0.969 -18.194,2.902 -4.385,1.809 -7.674,3.999 -9.869,6.579 -2.194,2.583 -3.549,5.228 -4.064,7.936 -0.516,2.582 -0.773,4.578 -0.773,6.002 v 4.448 l 0.018,66.284 c 0,4.537 3.679,8.216 8.217,8.216 4.538,0 8.216,-3.679 8.215,-8.263 v -67.396 c 0,-1.161 0.128,-2.388 0.385,-3.679 0.388,-1.419 1.16,-2.71 2.325,-3.872 1.16,-1.289 2.772,-2.385 4.836,-3.289 2.194,-0.904 5.032,-1.353 8.518,-1.353 h 1.95 c 3.983,-0.024 7.204,-3.275 7.204,-7.263 0,-4.007 -3.246,-7.252 -7.358,-7.252 z m 138.42,40.971 c 0,2.967 -1.1,5.547 -3.29,7.74 -2.195,2.066 -4.776,3.1 -7.743,3.1 h -11.031 c -0.646,0 -1.55,0.06 -2.71,0.192 -1.161,0.131 -2.32,0.388 -3.484,0.772 -1.161,0.387 -2.193,0.969 -3.095,1.743 -0.904,0.645 -1.486,1.546 -1.74,2.71 V 332.84 c 0,-1.034 0.191,-2.192 0.579,-3.486 0.387,-1.416 1.161,-2.708 2.321,-3.869 1.291,-1.162 3.032,-2.126 5.227,-2.902 2.323,-0.903 5.288,-1.355 8.902,-1.355 3.482,0 6.254,0.452 8.32,1.355 2.193,0.776 3.872,1.805 5.031,3.096 1.161,1.162 1.873,2.451 2.13,3.872 0.388,1.291 0.583,2.515 0.583,3.677 z m 11.608,-20.514 c -2.192,-2.58 -5.482,-4.774 -9.868,-6.579 -4.389,-1.937 -10.45,-2.905 -18.191,-2.905 -7.741,0 -13.805,0.968 -18.191,2.905 -4.388,1.805 -7.678,3.999 -9.874,6.579 -2.19,2.58 -3.544,5.16 -4.064,7.743 -0.514,2.58 -0.772,4.643 -0.772,6.189 v 57.289 c -0.13,4.383 0.97,8.254 3.29,11.609 1.032,1.421 2.326,2.838 3.871,4.259 1.549,1.419 3.485,2.707 5.805,3.872 2.451,1.028 5.288,1.87 8.518,2.513 3.224,0.773 7.031,1.158 11.417,1.158 5.934,0 10.838,-0.579 14.71,-1.736 3.871,-1.162 6.898,-2.517 9.093,-4.066 3.098,-2.193 5.354,-4.773 6.775,-7.74 0.512,-0.986 0.94,-1.996 1.283,-3.038 0.278,-0.847 0.424,-1.759 0.424,-2.7 0,-4.762 -3.861,-8.627 -8.627,-8.627 -3.793,0 -7.025,2.443 -8.177,5.849 -0.641,1.807 -1.806,3.355 -3.484,4.647 -0.775,0.511 -2.128,1.161 -4.062,1.932 -1.935,0.645 -4.581,0.97 -7.935,0.97 -2.582,0 -4.711,-0.195 -6.389,-0.582 -1.546,-0.388 -2.838,-0.837 -3.866,-1.355 -1.292,-0.516 -2.261,-1.098 -2.905,-1.743 -0.645,-0.644 -1.227,-1.416 -1.742,-2.323 -1.161,-1.806 -1.74,-4.256 -1.74,-7.353 v -8.709 c 0,-3.613 1.288,-6.645 3.868,-9.095 2.583,-2.45 5.545,-3.679 8.903,-3.679 h 14.709 c 1.806,0 3.549,-0.255 5.225,-0.771 1.419,-0.388 3.029,-0.97 4.836,-1.745 1.808,-0.771 3.419,-1.932 4.838,-3.484 3.098,-3.092 5.033,-5.997 5.81,-8.707 0.902,-2.707 1.351,-5.16 1.351,-7.353 v -9.292 c 0,-1.416 -0.258,-3.417 -0.771,-5.998 -0.521,-2.709 -1.871,-5.354 -4.068,-7.934 z m -44.53,-127.398 c 2.193,0.777 3.872,1.809 5.03,3.097 1.162,1.162 1.874,2.453 2.131,3.872 0.387,1.291 0.582,2.518 0.582,3.679 v 1.741 l -0.018,66.071 c 0,4.539 3.682,8.222 8.224,8.222 4.48,0 8.146,-3.586 8.241,-8.043 v -71.091 c 0,-1.416 -0.256,-3.419 -0.773,-5.997 -0.518,-2.71 -1.869,-5.355 -4.064,-7.935 -2.194,-2.58 -5.483,-4.773 -9.867,-6.582 -4.39,-1.933 -10.453,-2.905 -18.193,-2.905 -7.74,0 -13.805,0.972 -18.193,2.905 -4.387,1.809 -7.742,4.002 -10.064,6.582 -2.193,2.58 -3.55,5.157 -4.064,7.74 -0.517,2.583 -0.772,4.646 -0.772,6.192 v 3.485 l -0.008,67.427 c 0,4.539 3.685,8.222 8.224,8.222 4.479,0 8.136,-3.586 8.231,-8.043 v -68.381 c 0,-1.034 0.196,-2.193 0.582,-3.482 0.388,-1.418 1.163,-2.71 2.321,-3.871 1.292,-1.161 3.033,-2.128 5.228,-2.905 2.321,-0.899 5.288,-1.351 8.903,-1.351 3.481,0 6.254,0.452 8.319,1.351 z m 80.56,104.826 c 0,-3.765 -2.835,-6.868 -6.486,-7.288 -0.953,-0.177 -1.821,-0.406 -2.608,-0.684 -2.067,-0.901 -3.677,-1.999 -4.839,-3.29 -1.158,-1.291 -1.933,-2.58 -2.322,-3.871 -0.255,-1.416 -0.388,-2.708 -0.388,-3.869 v -62.124 h 10.001 c 3.695,-0.118 6.654,-3.168 6.654,-6.889 0,-3.798 -3.079,-6.875 -7.454,-6.854 h -9.201 l -0.008,-17.539 c 0,-4.542 -3.679,-8.221 -8.219,-8.221 -4.539,0 -8.22,3.679 -8.22,8.403 v 17.357 l -5.512,-0.021 c -3.796,0 -6.875,3.077 -6.875,6.875 0,3.794 3.079,6.873 6.943,6.889 h 5.444 v 65.413 c 0,1.419 0.257,3.482 0.774,6.195 0.517,2.58 1.868,5.157 4.061,7.738 2.326,2.582 5.68,4.84 10.063,6.776 2.669,1.096 5.953,1.861 9.856,2.292 0.328,0.042 0.66,0.047 0.998,0.047 4.053,0 7.338,-3.285 7.338,-7.335 z m 7.558,31.24 c -2.101,0 -3.793,0.665 -5.08,1.99 -1.272,1.33 -1.912,3.157 -1.912,5.488 0,1.252 0.169,2.343 0.51,3.279 0.343,0.935 0.82,1.71 1.441,2.323 0.613,0.613 1.349,1.073 2.209,1.377 0.86,0.296 1.804,0.447 2.832,0.447 0.809,0 1.569,-0.106 2.284,-0.319 0.723,-0.211 1.484,-0.51 2.285,-0.892 v -2.642 h -0.128 c -0.179,0.145 -0.421,0.319 -0.728,0.522 -0.306,0.197 -0.634,0.385 -0.982,0.562 -0.4,0.205 -0.852,0.371 -1.354,0.498 -0.501,0.128 -0.995,0.189 -1.478,0.189 -1.398,0 -2.479,-0.457 -3.255,-1.377 -0.765,-0.928 -1.147,-2.247 -1.147,-3.967 0,-1.77 0.39,-3.108 1.175,-4.02 0.79,-0.917 1.865,-1.377 3.227,-1.377 0.738,0 1.497,0.153 2.271,0.46 0.782,0.304 1.538,0.743 2.271,1.312 h 0.128 v -2.666 c -0.656,-0.33 -1.38,-0.61 -2.17,-0.841 -0.783,-0.229 -1.582,-0.346 -2.399,-0.346 z m -130.921,0.13 c 0,2.969 -1.099,5.55 -3.289,7.743 -2.193,2.065 -4.776,3.098 -7.743,3.098 h -11.03 c -0.648,0 -1.549,0.061 -2.71,0.191 -1.162,0.13 -2.321,0.388 -3.485,0.774 -1.162,0.388 -2.192,0.967 -3.094,1.742 -0.905,0.644 -1.486,1.548 -1.742,2.713 v -20.13 c 0,-1.032 0.194,-2.194 0.58,-3.485 0.387,-1.416 1.162,-2.707 2.32,-3.871 1.292,-1.159 3.032,-2.126 5.228,-2.902 2.321,-0.903 5.288,-1.355 8.9,-1.355 3.487,0 6.26,0.452 8.322,1.355 2.193,0.776 3.871,1.808 5.033,3.099 1.159,1.16 1.873,2.448 2.128,3.872 0.388,1.289 0.582,2.512 0.582,3.673 z m 11.613,-20.512 c -2.196,-2.582 -5.486,-4.775 -9.87,-6.582 -4.388,-1.936 -10.453,-2.901 -18.193,-2.901 -7.74,0 -13.807,0.965 -18.191,2.901 -4.389,1.807 -7.678,4 -9.872,6.582 -2.191,2.578 -3.547,5.16 -4.065,7.74 -0.515,2.581 -0.772,4.644 -0.772,6.193 v 57.286 c -0.13,4.383 0.967,8.258 3.289,11.609 1.033,1.421 2.324,2.84 3.872,4.259 1.547,1.419 3.484,2.71 5.805,3.874 2.451,1.029 5.289,1.868 8.517,2.51 3.225,0.774 7.031,1.162 11.417,1.162 5.935,0 10.835,-0.582 14.707,-1.739 3.871,-1.162 6.903,-2.517 9.097,-4.064 3.096,-2.192 5.355,-4.772 6.773,-7.743 0.513,-0.984 0.942,-1.995 1.284,-3.037 0.278,-0.845 0.426,-1.757 0.426,-2.697 0,-4.766 -3.861,-8.626 -8.626,-8.626 -3.8,0 -7.026,2.439 -8.18,5.845 -0.644,1.806 -1.806,3.358 -3.484,4.646 -0.774,0.514 -2.129,1.162 -4.064,1.936 -1.933,0.645 -4.581,0.967 -7.933,0.967 -2.58,0 -4.711,-0.195 -6.387,-0.58 -1.548,-0.387 -2.84,-0.839 -3.872,-1.356 -1.288,-0.517 -2.258,-1.097 -2.899,-1.744 -0.649,-0.641 -1.227,-1.416 -1.743,-2.32 -1.162,-1.806 -1.742,-4.256 -1.742,-7.35 v -8.713 c 0,-3.612 1.29,-6.647 3.87,-9.097 2.58,-2.45 5.547,-3.674 8.901,-3.674 h 14.707 c 1.809,0 3.55,-0.26 5.229,-0.774 1.418,-0.388 3.029,-0.969 4.837,-1.743 1.806,-0.775 3.419,-1.934 4.835,-3.485 3.101,-3.095 5.034,-6 5.811,-8.708 0.901,-2.71 1.351,-5.16 1.351,-7.352 v -9.292 c 0,-1.419 -0.257,-3.42 -0.775,-5.997 -0.514,-2.713 -1.868,-5.358 -4.06,-7.936 z M 126.66,392.04 c 0,4.645 -1.161,8.259 -3.485,10.837 -2.32,2.453 -6.709,3.679 -13.158,3.679 -6.323,0 -10.646,-1.164 -12.967,-3.484 -2.325,-2.45 -3.485,-6.13 -3.485,-11.032 0,-2.452 0.452,-4.452 1.355,-5.997 1.032,-1.679 2.13,-3.036 3.29,-4.065 1.421,-1.164 2.904,-2.068 4.451,-2.71 2.064,-0.774 4.259,-1.549 6.579,-2.323 l 6.196,-2.128 c 2.32,-0.904 4.45,-1.679 6.384,-2.322 0.904,-0.261 1.872,-0.71 2.903,-1.36 1.034,-0.641 1.678,-1.611 1.937,-2.899 z m 8.322,-68.317 c -5.292,-4.513 -13.614,-6.774 -24.965,-6.774 -5.806,0 -10.776,0.647 -14.905,1.938 -4.128,1.159 -7.548,2.835 -10.256,5.031 -2.711,2.063 -4.709,4.516 -6,7.353 l -0.621,1.713 c -0.411,1.013 -0.637,2.122 -0.637,3.284 0,4.841 3.925,8.767 8.766,8.767 3.828,0 7.083,-2.455 8.278,-5.875 0.537,-1.318 1.274,-2.526 2.212,-3.63 2.325,-2.71 6.71,-4.064 13.163,-4.064 3.225,0 5.871,0.387 7.934,1.162 2.192,0.644 3.934,1.545 5.224,2.708 1.292,1.164 2.194,2.45 2.712,3.871 0.514,1.289 0.773,2.58 0.773,3.869 v 3.679 c 0,1.546 -0.325,2.903 -0.968,4.061 -0.517,1.161 -1.16,2.195 -1.935,3.1 -0.774,0.902 -1.612,1.611 -2.515,2.129 l -1.938,0.965 c -0.514,0.13 -1.805,0.582 -3.868,1.357 l -7.356,2.71 -8.514,2.902 -7.936,2.708 c -4.644,1.676 -8.259,4.514 -10.837,8.515 -2.45,4.002 -3.677,8.45 -3.677,13.355 v 9.095 c 0,2.32 0.387,4.902 1.162,7.74 0.903,2.713 2.58,5.228 5.031,7.548 2.451,2.326 5.806,4.257 10.063,5.805 4.257,1.549 9.806,2.323 16.645,2.323 6.836,0 12.385,-0.774 16.643,-2.323 4.258,-1.548 7.61,-3.479 10.064,-5.805 2.451,-2.32 4.064,-4.835 4.837,-7.548 0.904,-2.838 1.355,-5.42 1.355,-7.74 v -57.284 c 0,-6.711 -2.645,-12.256 -7.934,-16.645 z M 85.575,308.19 c 4.428,0 8.03,-3.544 8.116,-7.948 v -85.289 c -0.073,-4.42 -3.679,-7.982 -8.116,-7.982 -4.435,0 -8.04,3.562 -8.141,7.982 0,0 0.03,0 0.03,85.289 0.087,4.401 3.685,7.948 8.111,7.948 z M 233.632,126.515 c 0,-4.482 -3.639,-8.14 -8.12,-8.14 -4.481,0 -8.137,3.658 -8.137,8.14 v 124.311 c 0.139,4.357 3.744,7.847 8.137,7.847 4.392,0 7.981,-3.49 8.12,-7.847 z m -117.229,36.907 -10.762,2.29 c -18.53,3.939 -31.4,17.255 -28.746,29.743 l 10.763,-2.286 c 18.53,-3.94 31.4,-17.256 28.745,-29.747 z m 46.602,78.44 c -2.194,0.774 -4.32,1.481 -6.387,2.128 -1.03,0.257 -2.063,0.709 -3.094,1.353 -0.905,0.645 -1.486,1.677 -1.743,3.098 v -65.994 c 0,-1.418 0.257,-2.775 0.774,-4.063 0.517,-1.421 1.355,-2.708 2.516,-3.872 1.291,-1.161 2.967,-2.066 5.032,-2.707 2.194,-0.775 4.902,-1.164 8.13,-1.164 3.094,0 5.675,0.322 7.74,0.966 2.194,0.648 3.871,1.551 5.031,2.713 1.292,1.159 2.195,2.515 2.712,4.064 0.643,1.546 1.03,3.16 1.16,4.835 v 41.223 c 0,2.453 -0.452,4.516 -1.355,6.195 -0.904,1.546 -1.935,2.837 -3.099,3.866 -1.417,1.164 -2.965,2.068 -4.642,2.713 -2.067,0.774 -4.257,1.548 -6.581,2.32 -1.935,0.647 -3.999,1.422 -6.194,2.326 z m 15.679,10.643 7.934,-2.708 c 4.772,-1.678 8.384,-4.516 10.838,-8.518 2.452,-3.998 3.676,-8.449 3.676,-13.355 v -48.381 c 0,-3.225 -0.646,-6.257 -1.936,-9.095 -1.162,-2.837 -3.095,-5.29 -5.807,-7.353 -2.707,-2.193 -6.126,-3.872 -10.255,-5.033 -4.129,-1.291 -9.096,-1.936 -14.901,-1.936 -11.355,0 -19.676,2.258 -24.969,6.774 -5.159,4.389 -7.804,9.871 -7.931,16.45 v 110.654 c 0.116,4.441 3.766,8.003 8.233,8.003 4.54,0 8.221,-3.679 8.215,-8.517 v -19.763 c 0,-1.549 0.257,-2.905 0.774,-4.064 0.647,-1.162 1.355,-2.193 2.129,-3.097 0.773,-0.905 1.547,-1.614 2.324,-2.131 l 1.935,-0.967 c 0.517,-0.13 1.807,-0.582 3.87,-1.351 2.064,-0.774 4.451,-1.611 7.159,-2.515 z m 44.527,30.582 h -44.543 l -6.863,-0.013 c -3.799,0 -6.878,3.079 -6.878,6.878 0,3.773 3.033,6.834 6.878,6.878 l 17.894,-0.002 -0.011,116.081 c 0,4.493 3.643,8.134 8.134,8.134 4.491,0 8.133,-3.641 8.133,-8.189 V 296.828 h 17.977 c 3.764,-0.042 6.802,-3.118 6.802,-6.891 0,-3.8 -3.08,-6.881 -7.523,-6.85 z"
   style="fill:#ffffff"
   id="path1284"
   inkscape:connector-curvature="0" />
    </g><path
       style="clip-rule:evenodd;display:inline;fill:none;fill-rule:evenodd;stroke:#ffffff;stroke-width:0.50000036;stroke-linecap:butt;stroke-linejoin:miter;stroke-miterlimit:1.41420996;stroke-dasharray:none;stroke-opacity:1"
       d="M 91.726892,-14865.453 H 8.1019219"
       id="path1288"
       inkscape:connector-curvature="0" /></g></g></svg>